<svg id="svg" xmlns="http://www.w3.org/2000/svg" xmlns:xlink="http://www.w3.org/1999/xlink" width="400" height="400" viewBox="0, 0, 400,400"><g id="svgg"><path id="path0" d="M0.000 200.000 L 0.000 400.000 200.000 400.000 L 400.000 400.000 400.000 200.000 L 400.000 0.000 200.000 0.000 L 0.000 0.000 0.000 200.000 M368.440 22.458 C 369.188 22.710,370.048 23.115,370.351 23.358 C 370.654 23.601,371.729 24.070,372.739 24.400 C 373.940 24.792,374.746 25.346,375.068 26.000 C 375.339 26.550,376.116 28.199,376.796 29.664 L 378.031 32.328 377.916 69.264 C 377.808 103.671,377.752 106.294,377.092 107.577 C 376.703 108.334,376.282 109.684,376.157 110.577 C 375.805 113.076,375.206 114.748,374.463 115.299 C 374.092 115.574,373.567 116.300,373.297 116.911 C 373.028 117.522,372.490 118.135,372.103 118.272 C 371.717 118.409,370.931 119.016,370.357 119.622 C 368.794 121.274,353.396 121.956,351.880 120.440 C 351.199 119.759,48.742 119.818,48.060 120.500 C 47.693 120.868,45.384 121.000,39.348 121.000 L 31.135 121.000 30.009 119.740 C 29.390 119.047,28.537 118.370,28.114 118.236 C 27.691 118.102,27.044 117.409,26.677 116.696 C 26.311 115.983,25.639 114.939,25.184 114.376 C 24.652 113.717,24.276 112.509,24.126 110.976 C 23.999 109.669,23.631 108.296,23.308 107.926 C 22.149 106.592,21.977 100.768,22.088 66.600 L 22.200 32.200 23.300 29.961 C 23.905 28.730,24.400 27.459,24.400 27.136 C 24.400 26.412,26.447 24.400,27.183 24.400 C 27.480 24.400,28.640 23.973,29.761 23.452 C 30.883 22.930,32.070 22.405,32.400 22.283 C 33.688 21.811,367.033 21.984,368.440 22.458 M60.208 57.024 C 59.772 57.354,58.692 57.839,57.808 58.103 C 56.923 58.366,55.570 59.212,54.800 59.982 L 53.400 61.382 53.532 68.963 C 53.671 76.941,53.345 79.383,51.977 80.621 C 51.287 81.245,51.284 81.324,51.928 82.014 C 52.303 82.417,52.842 83.523,53.125 84.473 C 53.613 86.105,53.821 86.285,56.895 87.736 L 60.148 89.272 69.574 89.127 C 78.501 88.991,79.074 88.936,80.400 88.093 C 81.170 87.604,82.211 87.202,82.713 87.201 C 85.372 87.197,88.147 79.527,85.975 78.185 C 84.341 77.174,84.406 69.200,86.049 69.200 C 86.242 69.200,86.400 67.504,86.400 65.432 L 86.400 61.663 84.845 60.093 C 83.554 58.788,82.936 58.480,81.201 58.275 C 80.052 58.139,78.492 57.661,77.733 57.214 C 75.913 56.140,61.583 55.985,60.208 57.024 M370.768 153.100 C 371.467 153.866,372.344 154.400,372.901 154.400 C 374.309 154.400,375.089 155.197,375.602 157.158 C 375.855 158.125,376.444 159.433,376.911 160.065 C 378.265 161.895,378.359 164.512,378.355 200.000 C 378.350 236.084,378.258 238.648,376.911 240.083 C 376.437 240.587,375.878 241.759,375.670 242.686 C 375.403 243.875,374.727 244.936,373.377 246.286 L 371.463 248.200 201.362 248.302 C 30.826 248.404,29.200 248.392,29.200 247.025 C 29.200 246.672,28.561 246.259,27.621 246.006 C 25.790 245.513,24.400 243.960,24.400 242.408 C 24.400 241.812,24.041 240.999,23.602 240.602 C 22.054 239.201,22.005 237.953,22.002 199.997 C 22.000 162.435,22.050 161.150,23.561 159.639 C 24.022 159.178,24.401 158.395,24.401 157.900 C 24.404 156.248,25.834 154.467,27.392 154.175 C 28.195 154.025,29.004 153.567,29.237 153.131 C 29.465 152.704,30.046 152.196,30.526 152.002 C 31.028 151.799,103.384 151.681,200.490 151.724 L 369.580 151.800 370.768 153.100 M60.995 187.300 C 60.778 187.795,60.193 188.258,59.696 188.328 C 59.180 188.402,58.531 188.961,58.185 189.628 C 57.852 190.273,57.332 190.800,57.029 190.800 C 56.727 190.800,56.107 191.430,55.653 192.200 C 55.199 192.970,54.551 193.600,54.213 193.600 C 53.758 193.600,53.600 194.040,53.600 195.311 C 53.600 196.252,53.332 197.405,53.004 197.873 C 52.477 198.626,52.476 198.855,53.002 199.862 C 53.434 200.692,53.596 202.366,53.598 206.040 C 53.600 211.093,54.045 213.512,55.087 214.132 C 55.393 214.315,55.803 214.882,55.997 215.393 C 56.219 215.975,56.919 216.503,57.875 216.809 C 58.714 217.077,59.881 217.745,60.469 218.293 L 61.538 219.290 68.809 219.139 C 75.903 218.992,76.099 218.965,76.853 218.034 C 77.423 217.330,78.146 217.030,79.618 216.889 C 81.269 216.730,81.649 216.543,81.836 215.799 C 81.960 215.305,82.475 214.712,82.981 214.482 C 83.851 214.085,83.916 213.774,84.190 208.646 C 84.455 203.696,84.563 203.141,85.440 202.194 C 86.534 201.014,86.738 198.778,85.820 198.017 C 85.134 197.447,84.560 195.705,84.214 193.139 C 84.006 191.600,83.793 191.235,82.987 191.033 C 82.401 190.885,81.915 190.401,81.769 189.818 C 81.560 188.988,81.212 188.809,79.343 188.576 C 78.142 188.426,76.944 188.098,76.680 187.847 C 74.787 186.048,61.744 185.593,60.995 187.300 M45.800 280.000 C 46.522 280.797,47.032 280.800,200.062 280.800 C 353.067 280.800,353.603 280.797,354.400 280.000 C 356.328 278.072,368.800 279.067,368.800 281.149 C 368.800 281.341,369.475 281.607,370.300 281.741 C 373.390 282.243,375.668 285.902,376.202 291.222 C 376.366 292.849,376.792 294.626,377.150 295.172 C 377.736 296.066,377.811 299.717,377.916 332.095 L 378.032 368.025 377.057 369.912 C 376.521 370.951,375.796 372.477,375.446 373.304 C 374.988 374.385,374.385 374.988,373.304 375.446 C 372.477 375.796,370.960 376.516,369.934 377.045 L 368.068 378.008 200.190 378.016 L 32.313 378.024 29.825 376.812 C 28.456 376.145,27.151 375.600,26.923 375.600 C 26.113 375.600,24.480 373.554,24.232 372.228 C 24.093 371.487,23.736 370.679,23.439 370.433 C 22.024 369.258,21.958 367.306,22.080 330.600 C 22.200 294.680,22.202 294.596,23.062 292.800 C 23.536 291.810,24.045 289.955,24.194 288.678 C 24.387 287.014,24.766 285.994,25.532 285.077 C 26.119 284.373,26.795 283.438,27.033 282.999 C 27.271 282.559,27.856 282.022,28.333 281.805 C 28.810 281.588,29.200 281.270,29.200 281.099 C 29.200 279.132,44.120 278.144,45.800 280.000 M62.441 314.634 C 61.693 315.165,60.673 315.600,60.173 315.600 C 59.125 315.600,56.000 318.422,56.000 319.369 C 56.000 319.716,55.667 320.333,55.260 320.740 C 54.055 321.945,53.600 323.892,53.600 327.841 C 53.600 331.435,53.101 333.600,52.274 333.600 C 52.055 333.600,52.173 333.928,52.536 334.329 C 52.899 334.730,53.309 335.945,53.448 337.029 C 53.608 338.276,54.018 339.308,54.566 339.838 C 55.041 340.299,55.677 341.420,55.977 342.330 C 56.292 343.285,56.846 344.088,57.286 344.227 C 57.706 344.360,58.247 344.904,58.489 345.435 C 58.806 346.132,59.250 346.400,60.087 346.400 C 61.516 346.400,64.745 347.115,65.731 347.649 C 66.190 347.898,66.637 347.906,66.931 347.670 C 67.785 346.985,71.588 346.400,75.193 346.400 C 78.364 346.400,78.773 346.316,78.994 345.620 C 79.130 345.192,79.637 344.717,80.120 344.566 C 81.399 344.166,84.400 341.040,84.400 340.108 C 84.400 339.670,84.850 338.649,85.400 337.838 C 86.417 336.339,86.928 330.800,86.049 330.800 C 85.310 330.800,84.766 328.405,84.441 323.729 C 83.962 316.842,83.375 316.247,76.653 315.846 C 72.220 315.581,69.200 314.803,69.200 313.926 C 69.200 313.100,63.805 313.665,62.441 314.634 " stroke="none" fill="#fbfbfb" fill-rule="evenodd"></path><path id="path1" d="M31.309 24.080 C 26.963 25.590,26.012 26.467,24.481 30.378 L 23.200 33.651 23.200 67.420 C 23.200 87.911,23.353 101.859,23.590 102.894 C 23.804 103.832,24.271 106.220,24.626 108.200 C 25.602 113.636,27.576 116.594,31.571 118.610 L 34.541 120.109 40.370 119.826 C 45.095 119.596,46.436 119.396,47.449 118.770 C 49.168 117.707,352.141 117.734,352.798 118.797 C 353.184 119.421,357.343 119.895,363.036 119.965 C 369.577 120.046,374.568 115.355,375.554 108.200 C 375.827 106.220,376.233 103.901,376.457 103.046 C 376.717 102.053,376.868 89.215,376.875 67.446 L 376.886 33.400 375.856 30.600 C 374.501 26.919,372.728 25.289,368.743 24.061 L 365.800 23.154 200.109 23.077 L 34.419 23.000 31.309 24.080 M201.400 24.169 C 290.329 24.187,358.661 24.046,360.875 23.841 C 363.497 23.599,365.115 23.621,365.875 23.909 C 366.494 24.144,368.035 24.645,369.299 25.023 C 372.061 25.847,374.470 28.201,375.275 30.864 C 376.216 33.976,376.024 104.026,375.063 108.204 C 373.517 114.924,368.191 119.477,362.400 119.029 C 356.945 118.608,353.359 118.127,352.274 117.672 C 350.638 116.986,49.139 116.988,47.874 117.674 C 47.035 118.128,43.617 118.602,37.933 119.052 C 35.652 119.233,34.988 119.123,33.333 118.295 C 29.339 116.294,28.820 115.926,27.956 114.481 C 27.469 113.667,26.771 112.640,26.405 112.200 C 24.404 109.794,23.925 99.759,24.111 64.188 C 24.295 29.008,24.186 30.379,27.044 27.436 C 28.707 25.724,30.077 24.968,32.214 24.583 C 33.086 24.426,34.070 24.134,34.400 23.933 C 34.745 23.724,37.298 23.690,40.400 23.853 C 43.370 24.009,115.820 24.151,201.400 24.169 M58.200 55.330 C 51.509 57.949,48.919 62.766,51.000 68.723 C 51.550 70.297,52.000 72.102,52.000 72.734 C 52.000 73.366,51.550 75.123,51.000 76.640 C 48.809 82.681,49.915 86.111,55.000 89.046 L 57.000 90.200 68.800 90.180 C 81.417 90.159,82.132 90.067,85.482 88.043 C 88.099 86.463,88.669 84.636,88.029 79.880 C 87.158 73.410,87.092 72.051,87.562 70.183 C 89.769 61.420,87.587 57.695,78.880 55.367 C 76.170 54.642,60.032 54.613,58.200 55.330 M80.703 56.700 C 86.763 58.676,87.774 60.306,87.096 67.009 C 86.600 71.915,86.637 75.928,87.218 80.200 C 88.288 88.058,84.465 89.965,67.600 89.987 C 53.112 90.005,48.493 86.293,51.754 77.252 C 52.991 73.822,53.050 71.786,52.000 68.800 C 50.212 63.717,51.825 59.574,56.548 57.116 L 59.400 55.633 68.365 55.616 C 77.082 55.600,77.423 55.630,80.703 56.700 M33.000 152.730 C 32.120 152.801,31.067 153.161,30.660 153.530 C 30.253 153.898,29.173 154.560,28.260 155.000 C 26.868 155.671,26.381 156.253,25.245 158.600 C 22.709 163.839,22.810 162.118,22.809 200.200 C 22.809 237.381,22.732 235.826,24.790 240.600 C 26.291 244.083,26.458 244.305,28.146 245.055 C 29.056 245.459,30.126 246.086,30.525 246.448 C 30.923 246.810,31.967 247.220,32.844 247.361 C 35.254 247.746,366.357 247.625,368.200 247.238 C 372.138 246.411,373.618 244.937,375.721 239.742 L 377.200 236.089 377.194 200.344 C 377.188 163.388,377.232 164.611,375.743 160.279 C 375.121 158.467,373.728 156.214,373.000 155.842 C 372.560 155.616,371.292 154.844,370.182 154.124 L 368.164 152.816 201.382 152.708 C 109.652 152.649,33.880 152.658,33.000 152.730 M369.707 154.873 C 376.914 159.204,376.868 158.897,376.719 201.200 L 376.600 235.000 375.490 238.142 C 373.538 243.670,372.196 245.141,368.133 246.203 C 365.675 246.845,36.505 247.187,33.198 246.550 C 32.429 246.402,31.350 245.972,30.800 245.593 C 30.250 245.215,29.395 244.779,28.901 244.626 C 27.570 244.213,25.738 241.278,24.596 237.731 L 23.588 234.600 23.724 199.600 C 23.799 180.350,24.002 164.021,24.174 163.314 C 25.426 158.167,28.877 154.456,33.158 153.654 C 33.905 153.514,109.463 153.449,201.065 153.508 L 367.614 153.616 369.707 154.873 M59.287 185.912 C 53.968 190.318,52.342 192.355,51.837 195.245 C 51.698 196.040,51.228 197.013,50.792 197.407 C 49.788 198.316,49.787 199.221,50.789 200.296 C 51.467 201.024,51.633 202.050,51.961 207.557 C 52.379 214.556,52.341 214.419,54.480 216.726 C 57.316 219.784,59.715 220.581,66.540 220.729 C 72.319 220.855,77.760 220.313,78.222 219.564 C 78.346 219.364,79.112 219.194,79.924 219.186 C 83.677 219.150,85.627 216.266,86.074 210.092 C 86.269 207.397,86.722 204.663,87.200 203.304 C 89.294 197.345,85.388 187.865,80.508 187.065 C 79.797 186.948,78.610 186.391,77.870 185.826 C 76.528 184.803,76.502 184.800,68.562 184.812 L 60.600 184.824 59.287 185.912 M77.600 186.618 C 78.150 187.124,79.319 187.670,80.197 187.831 C 81.995 188.163,85.182 190.904,85.193 192.129 C 85.197 192.531,85.650 194.199,86.200 195.838 C 87.406 199.429,87.463 201.308,86.410 202.786 C 85.780 203.671,85.573 204.812,85.385 208.447 C 85.078 214.389,85.097 214.322,83.167 216.300 C 81.875 217.624,81.215 218.000,80.183 218.000 C 79.454 218.000,78.592 218.265,78.268 218.589 C 77.247 219.610,74.407 219.980,67.600 219.980 L 61.000 219.980 58.351 218.490 C 56.894 217.671,55.100 216.302,54.364 215.449 L 53.027 213.897 52.723 207.484 C 52.455 201.845,52.321 200.967,51.609 200.210 C 50.591 199.126,50.592 198.590,51.615 197.491 C 52.064 197.010,52.514 196.207,52.615 195.708 C 52.717 195.209,52.889 194.366,52.998 193.836 C 53.318 192.284,59.751 186.206,61.789 185.531 C 63.988 184.803,76.566 185.667,77.600 186.618 M31.207 281.736 C 27.432 283.756,25.490 286.774,24.602 291.997 C 24.247 294.089,23.790 296.610,23.588 297.600 C 22.740 301.744,23.035 365.981,23.913 368.435 C 25.693 373.412,26.622 374.378,31.249 376.065 L 34.600 377.288 65.400 377.144 C 109.947 376.936,355.793 376.974,361.000 377.190 C 365.045 377.358,365.635 377.285,368.311 376.291 C 373.880 374.222,374.471 373.662,376.013 369.000 L 376.938 366.200 376.903 333.517 C 376.884 315.542,376.751 300.644,376.607 300.411 C 376.369 300.026,375.213 290.728,375.204 289.121 C 375.197 287.917,371.413 283.848,368.768 282.200 L 366.200 280.600 361.072 280.621 C 357.046 280.638,355.868 280.767,355.587 281.221 C 354.996 282.178,46.301 282.289,44.842 281.333 C 44.063 280.823,42.622 280.625,38.809 280.506 L 33.800 280.348 31.207 281.736 M44.400 282.200 C 45.262 282.693,66.718 282.772,200.000 282.772 C 333.282 282.772,354.738 282.693,355.600 282.200 C 357.066 281.362,366.105 281.362,366.800 282.200 C 367.074 282.530,367.565 282.800,367.892 282.800 C 368.218 282.800,369.791 284.066,371.386 285.613 C 374.699 288.825,374.719 288.889,375.605 298.800 C 376.418 307.885,375.975 367.811,375.080 369.800 C 374.090 372.002,371.835 374.210,369.855 374.916 C 365.197 376.579,363.530 376.904,361.457 376.554 C 358.891 376.121,44.708 376.148,39.924 376.582 C 37.169 376.832,36.049 376.766,34.524 376.260 C 33.466 375.910,31.688 375.345,30.574 375.004 C 27.157 373.960,25.490 371.662,24.184 366.200 C 23.760 364.426,23.968 304.136,24.415 299.000 C 25.223 289.740,26.777 285.362,29.800 283.832 C 30.460 283.498,31.540 282.861,32.200 282.415 C 33.730 281.383,42.694 281.224,44.400 282.200 M63.291 312.450 C 56.275 313.479,52.657 316.938,52.155 323.096 C 51.927 325.894,50.889 331.140,50.375 332.095 C 49.905 332.965,49.885 335.082,50.344 335.365 C 50.533 335.482,50.800 336.395,50.937 337.394 C 51.637 342.497,55.565 347.135,60.658 348.871 C 64.701 350.249,66.189 350.457,68.400 349.954 C 70.589 349.456,73.786 348.893,77.000 348.440 C 86.463 347.108,89.096 340.758,87.053 324.200 C 85.928 315.078,85.123 314.038,78.800 313.543 C 75.845 313.312,73.428 313.044,67.200 312.259 C 66.430 312.161,64.671 312.248,63.291 312.450 M72.200 313.574 C 73.520 313.795,76.130 314.159,78.000 314.384 C 84.120 315.119,85.203 316.137,85.659 321.583 C 85.816 323.462,86.172 326.080,86.451 327.400 C 88.060 335.028,86.485 342.274,82.699 344.664 C 81.799 345.232,80.733 346.004,80.330 346.379 C 79.623 347.038,74.784 348.005,72.200 348.005 C 71.540 348.005,70.533 348.248,69.963 348.546 C 67.513 349.824,66.070 349.734,60.800 347.972 C 58.039 347.049,55.320 344.859,54.129 342.600 C 52.366 339.259,52.000 338.346,52.000 337.296 C 52.000 336.667,51.736 335.804,51.413 335.376 C 50.698 334.432,50.634 333.126,51.270 332.490 C 51.825 331.935,52.356 328.978,52.651 324.800 C 52.852 321.957,53.487 319.600,54.054 319.600 C 54.196 319.600,54.695 318.784,55.164 317.788 C 55.892 316.240,56.379 315.805,58.508 314.806 C 62.951 312.722,65.648 312.480,72.200 313.574 " stroke="none" fill="#e4e4e4" fill-rule="evenodd"></path><path id="path2" d="M34.400 23.933 C 34.070 24.134,33.086 24.426,32.214 24.583 C 30.077 24.968,28.707 25.724,27.044 27.436 C 24.186 30.379,24.295 29.008,24.111 64.188 C 23.925 99.759,24.404 109.794,26.405 112.200 C 26.771 112.640,27.469 113.667,27.956 114.481 C 28.820 115.926,29.339 116.294,33.333 118.295 C 34.988 119.123,35.652 119.233,37.933 119.052 C 43.617 118.602,47.035 118.128,47.874 117.674 C 49.139 116.988,350.638 116.986,352.274 117.672 C 353.359 118.127,356.945 118.608,362.400 119.029 C 368.191 119.477,373.517 114.924,375.063 108.204 C 376.024 104.026,376.216 33.976,375.275 30.864 C 374.470 28.201,372.061 25.847,369.299 25.023 C 368.035 24.645,366.494 24.144,365.875 23.909 C 365.115 23.621,363.497 23.599,360.875 23.841 C 356.308 24.264,48.431 24.275,40.400 23.853 C 37.298 23.690,34.745 23.724,34.400 23.933 M198.800 25.467 C 320.960 25.596,358.338 25.525,360.124 25.158 C 362.358 24.699,363.604 24.792,369.043 25.826 C 369.866 25.983,373.333 29.265,374.176 30.686 C 374.713 31.590,374.981 97.406,374.475 103.921 C 374.058 109.291,372.353 113.535,370.248 114.443 C 369.614 114.716,368.568 115.423,367.922 116.012 C 366.592 117.227,362.950 118.260,361.534 117.823 C 358.011 116.737,350.066 116.681,200.200 116.684 C 52.110 116.687,41.129 116.763,38.666 117.802 C 37.504 118.292,33.536 117.193,32.200 116.011 C 31.540 115.427,30.495 114.735,29.879 114.474 C 29.223 114.195,28.584 113.500,28.340 112.799 C 28.110 112.140,27.759 111.600,27.561 111.600 C 27.362 111.600,27.200 111.358,27.200 111.061 C 27.200 110.765,26.885 109.910,26.500 109.161 C 25.850 107.897,25.792 105.056,25.694 69.269 L 25.588 30.738 28.157 28.169 C 30.505 25.821,30.875 25.598,32.463 25.572 C 33.418 25.556,34.560 25.382,35.000 25.183 C 35.440 24.985,36.700 24.930,37.800 25.061 C 38.900 25.192,111.350 25.374,198.800 25.467 M56.800 54.544 C 54.935 55.157,52.285 57.121,51.353 58.580 C 48.689 62.754,48.437 64.228,49.612 68.758 C 50.542 72.340,50.495 73.817,49.339 77.352 C 47.479 83.041,49.399 87.592,54.800 90.299 C 58.050 91.927,85.093 91.098,85.764 89.349 C 85.883 89.041,86.405 88.626,86.926 88.428 C 89.087 87.607,90.573 82.563,89.436 79.914 C 88.480 77.686,87.888 72.442,88.362 70.400 C 88.592 69.410,88.785 67.965,88.790 67.189 C 88.796 66.413,89.077 65.383,89.416 64.899 C 89.956 64.128,89.961 63.884,89.457 62.910 C 89.142 62.300,88.678 61.036,88.427 60.102 C 87.701 57.404,84.399 55.168,80.200 54.530 C 76.057 53.900,58.727 53.911,56.800 54.544 M78.880 55.367 C 87.587 57.695,89.769 61.420,87.562 70.183 C 87.092 72.051,87.158 73.410,88.029 79.880 C 88.669 84.636,88.099 86.463,85.482 88.043 C 82.132 90.067,81.417 90.159,68.800 90.180 L 57.000 90.200 55.000 89.046 C 49.915 86.111,48.809 82.681,51.000 76.640 C 51.550 75.123,52.000 73.366,52.000 72.734 C 52.000 72.102,51.550 70.297,51.000 68.723 C 48.919 62.766,51.509 57.949,58.200 55.330 C 60.032 54.613,76.170 54.642,78.880 55.367 M33.158 153.654 C 28.877 154.456,25.426 158.167,24.174 163.314 C 24.002 164.021,23.799 180.350,23.724 199.600 L 23.588 234.600 24.596 237.731 C 25.738 241.278,27.570 244.213,28.901 244.626 C 29.395 244.779,30.250 245.215,30.800 245.593 C 31.350 245.972,32.429 246.402,33.198 246.550 C 36.505 247.187,365.675 246.845,368.133 246.203 C 372.196 245.141,373.538 243.670,375.490 238.142 L 376.600 235.000 376.719 201.200 C 376.868 158.897,376.914 159.204,369.707 154.873 L 367.614 153.616 201.065 153.508 C 109.463 153.449,33.905 153.514,33.158 153.654 M204.000 155.146 C 374.371 155.410,368.341 155.348,370.175 156.858 C 370.409 157.051,371.095 157.580,371.700 158.033 C 372.305 158.487,372.800 159.115,372.800 159.429 C 372.800 159.743,372.958 160.000,373.151 160.000 C 373.612 160.000,374.246 161.687,374.775 164.320 C 375.389 167.383,375.359 233.046,374.741 236.233 C 373.416 243.073,369.879 245.467,361.400 245.264 C 351.220 245.021,42.975 245.135,39.800 245.384 C 36.240 245.662,35.256 245.504,29.577 243.740 C 29.235 243.634,28.518 242.749,27.986 241.774 C 27.453 240.798,26.896 240.000,26.747 240.000 C 25.424 240.000,24.340 170.032,25.562 163.424 C 26.607 157.770,31.962 153.993,38.000 154.652 C 39.210 154.784,113.910 155.006,204.000 155.146 M59.280 184.198 C 56.533 185.460,52.137 189.648,51.780 191.342 C 51.635 192.034,50.979 193.549,50.323 194.710 C 49.027 197.001,48.939 199.202,49.984 203.200 C 50.242 204.190,50.609 206.530,50.799 208.400 C 51.618 216.457,52.808 218.825,56.800 220.336 C 63.660 222.934,65.119 223.098,71.800 222.028 C 73.120 221.816,75.370 221.457,76.800 221.231 C 87.432 219.544,87.353 219.678,88.246 201.800 C 88.740 191.922,87.515 189.012,81.513 185.803 C 76.910 183.341,63.284 182.358,59.280 184.198 M77.870 185.826 C 78.610 186.391,79.797 186.948,80.508 187.065 C 85.388 187.865,89.294 197.345,87.200 203.304 C 86.722 204.663,86.269 207.397,86.074 210.092 C 85.627 216.266,83.677 219.150,79.924 219.186 C 79.112 219.194,78.346 219.364,78.222 219.564 C 77.760 220.313,72.319 220.855,66.540 220.729 C 59.715 220.581,57.316 219.784,54.480 216.726 C 52.341 214.419,52.379 214.556,51.961 207.557 C 51.633 202.050,51.467 201.024,50.789 200.296 C 49.787 199.221,49.788 198.316,50.792 197.407 C 51.228 197.013,51.698 196.040,51.837 195.245 C 52.342 192.355,53.968 190.318,59.287 185.912 L 60.600 184.824 68.562 184.812 C 76.502 184.800,76.528 184.803,77.870 185.826 M32.200 282.415 C 31.540 282.861,30.460 283.498,29.800 283.832 C 26.777 285.362,25.223 289.740,24.415 299.000 C 23.968 304.136,23.760 364.426,24.184 366.200 C 25.490 371.662,27.157 373.960,30.574 375.004 C 31.688 375.345,33.466 375.910,34.524 376.260 C 36.049 376.766,37.169 376.832,39.924 376.582 C 44.708 376.148,358.891 376.121,361.457 376.554 C 363.530 376.904,365.197 376.579,369.855 374.916 C 371.835 374.210,374.090 372.002,375.080 369.800 C 375.975 367.811,376.418 307.885,375.605 298.800 C 374.719 288.889,374.699 288.825,371.386 285.613 C 369.791 284.066,368.218 282.800,367.892 282.800 C 367.565 282.800,367.074 282.530,366.800 282.200 C 366.105 281.362,357.066 281.362,355.600 282.200 C 354.738 282.693,333.282 282.772,200.000 282.772 C 66.718 282.772,45.262 282.693,44.400 282.200 C 42.694 281.224,33.730 281.383,32.200 282.415 M200.100 283.268 C 286.725 283.260,359.265 283.196,361.300 283.127 C 365.605 282.979,367.717 283.776,370.513 286.600 C 373.712 289.831,374.061 290.737,374.429 296.770 C 374.855 303.751,374.868 366.069,374.444 368.258 C 373.993 370.584,370.585 373.993,368.258 374.445 C 366.055 374.873,34.284 374.872,32.110 374.444 C 27.233 373.484,24.837 368.568,25.167 360.200 C 25.202 359.320,25.359 343.660,25.515 325.400 L 25.800 292.200 27.322 289.120 C 28.175 287.394,29.169 285.937,29.585 285.805 C 29.992 285.676,31.107 284.939,32.063 284.168 L 33.800 282.767 38.200 283.025 C 40.620 283.167,113.475 283.276,200.100 283.268 M61.200 311.841 C 60.650 311.934,59.412 312.113,58.448 312.238 C 55.320 312.643,51.613 316.772,51.587 319.880 C 51.580 320.716,51.310 321.749,50.987 322.176 C 50.664 322.604,50.400 323.610,50.400 324.412 C 50.400 325.215,50.040 327.280,49.600 329.000 C 48.412 333.646,49.018 339.767,50.875 341.884 C 51.221 342.278,51.797 343.180,52.157 343.890 C 54.592 348.698,60.650 351.570,67.302 351.069 C 85.621 349.691,89.285 346.514,88.648 332.561 C 88.413 327.406,87.739 316.630,87.648 316.566 C 87.622 316.547,86.775 315.695,85.767 314.672 C 84.645 313.534,83.365 312.669,82.467 312.441 C 80.937 312.053,62.945 311.546,61.200 311.841 M72.000 312.856 C 73.870 313.088,76.930 313.397,78.800 313.543 C 85.123 314.038,85.928 315.078,87.053 324.200 C 89.096 340.758,86.463 347.108,77.000 348.440 C 73.786 348.893,70.589 349.456,68.400 349.954 C 61.148 351.605,51.981 345.012,50.937 337.394 C 50.800 336.395,50.533 335.482,50.344 335.365 C 49.885 335.082,49.905 332.965,50.375 332.095 C 50.889 331.140,51.927 325.894,52.155 323.096 C 52.730 316.043,59.357 311.269,67.200 312.259 C 67.970 312.356,70.130 312.625,72.000 312.856 " stroke="none" fill="#dcdcdc" fill-rule="evenodd"></path><path id="path3" d="M32.400 22.283 C 32.070 22.405,30.883 22.930,29.761 23.452 C 28.640 23.973,27.480 24.400,27.183 24.400 C 26.447 24.400,24.400 26.412,24.400 27.136 C 24.400 27.459,23.905 28.730,23.300 29.961 L 22.200 32.200 22.088 66.600 C 21.977 100.768,22.149 106.592,23.308 107.926 C 23.631 108.296,23.999 109.669,24.126 110.976 C 24.276 112.509,24.652 113.717,25.184 114.376 C 25.639 114.939,26.311 115.983,26.677 116.696 C 27.044 117.409,27.691 118.102,28.114 118.236 C 28.537 118.370,29.390 119.047,30.009 119.740 L 31.135 121.000 39.348 121.000 C 45.384 121.000,47.693 120.868,48.060 120.500 C 48.742 119.818,351.199 119.759,351.880 120.440 C 353.396 121.956,368.794 121.274,370.357 119.622 C 370.931 119.016,371.717 118.409,372.103 118.272 C 372.490 118.135,373.028 117.522,373.297 116.911 C 373.567 116.300,374.092 115.574,374.463 115.299 C 375.206 114.748,375.805 113.076,376.157 110.577 C 376.282 109.684,376.703 108.334,377.092 107.577 C 377.752 106.294,377.808 103.671,377.916 69.264 L 378.031 32.328 376.796 29.664 C 376.116 28.199,375.339 26.550,375.068 26.000 C 374.746 25.346,373.940 24.792,372.739 24.400 C 371.729 24.070,370.654 23.601,370.351 23.358 C 368.651 21.995,369.231 22.000,200.040 22.032 C 108.168 22.049,32.730 22.162,32.400 22.283 M368.743 24.061 C 372.728 25.289,374.501 26.919,375.856 30.600 L 376.886 33.400 376.875 67.446 C 376.868 89.215,376.717 102.053,376.457 103.046 C 376.233 103.901,375.827 106.220,375.554 108.200 C 374.568 115.355,369.577 120.046,363.036 119.965 C 357.343 119.895,353.184 119.421,352.798 118.797 C 352.141 117.734,49.168 117.707,47.449 118.770 C 46.436 119.396,45.095 119.596,40.370 119.826 L 34.541 120.109 31.571 118.610 C 27.576 116.594,25.602 113.636,24.626 108.200 C 24.271 106.220,23.804 103.832,23.590 102.894 C 23.353 101.859,23.200 87.911,23.200 67.420 L 23.200 33.651 24.481 30.378 C 26.012 26.467,26.963 25.590,31.309 24.080 L 34.419 23.000 200.109 23.077 L 365.800 23.154 368.743 24.061 M56.548 57.116 C 51.825 59.574,50.212 63.717,52.000 68.800 C 53.050 71.786,52.991 73.822,51.754 77.252 C 48.493 86.293,53.112 90.005,67.600 89.987 C 84.465 89.965,88.288 88.058,87.218 80.200 C 86.637 75.928,86.600 71.915,87.096 67.009 C 88.033 57.745,84.485 55.587,68.365 55.616 L 59.400 55.633 56.548 57.116 M77.733 57.214 C 78.492 57.661,80.052 58.139,81.201 58.275 C 82.936 58.480,83.554 58.788,84.845 60.093 L 86.400 61.663 86.400 65.432 C 86.400 67.504,86.242 69.200,86.049 69.200 C 84.406 69.200,84.341 77.174,85.975 78.185 C 88.147 79.527,85.372 87.197,82.713 87.201 C 82.211 87.202,81.170 87.604,80.400 88.093 C 79.074 88.936,78.501 88.991,69.574 89.127 L 60.148 89.272 56.895 87.736 C 53.821 86.285,53.613 86.105,53.125 84.473 C 52.842 83.523,52.303 82.417,51.928 82.014 C 51.284 81.324,51.287 81.245,51.977 80.621 C 53.345 79.383,53.671 76.941,53.532 68.963 L 53.400 61.382 54.800 59.982 C 55.570 59.212,56.923 58.366,57.808 58.103 C 58.692 57.839,59.772 57.354,60.208 57.024 C 61.583 55.985,75.913 56.140,77.733 57.214 M30.526 152.002 C 30.046 152.196,29.465 152.704,29.237 153.131 C 29.004 153.567,28.195 154.025,27.392 154.175 C 25.834 154.467,24.404 156.248,24.401 157.900 C 24.401 158.395,24.022 159.178,23.561 159.639 C 22.050 161.150,22.000 162.435,22.002 199.997 C 22.005 237.953,22.054 239.201,23.602 240.602 C 24.041 240.999,24.400 241.812,24.400 242.408 C 24.400 243.960,25.790 245.513,27.621 246.006 C 28.561 246.259,29.200 246.672,29.200 247.025 C 29.200 248.392,30.826 248.404,201.362 248.302 L 371.463 248.200 373.377 246.286 C 374.727 244.936,375.403 243.875,375.670 242.686 C 375.878 241.759,376.437 240.587,376.911 240.083 C 378.258 238.648,378.350 236.084,378.355 200.000 C 378.359 164.512,378.265 161.895,376.911 160.065 C 376.444 159.433,375.855 158.125,375.602 157.158 C 375.089 155.197,374.309 154.400,372.901 154.400 C 372.344 154.400,371.467 153.866,370.768 153.100 L 369.580 151.800 200.490 151.724 C 103.384 151.681,31.028 151.799,30.526 152.002 M370.182 154.124 C 371.292 154.844,372.560 155.616,373.000 155.842 C 373.728 156.214,375.121 158.467,375.743 160.279 C 377.232 164.611,377.188 163.388,377.194 200.344 L 377.200 236.089 375.721 239.742 C 373.618 244.937,372.138 246.411,368.200 247.238 C 366.357 247.625,35.254 247.746,32.844 247.361 C 31.967 247.220,30.923 246.810,30.525 246.448 C 30.126 246.086,29.056 245.459,28.146 245.055 C 26.458 244.305,26.291 244.083,24.790 240.600 C 22.732 235.826,22.809 237.381,22.809 200.200 C 22.810 162.118,22.709 163.839,25.245 158.600 C 26.381 156.253,26.868 155.671,28.260 155.000 C 29.173 154.560,30.253 153.898,30.660 153.530 C 31.747 152.545,22.015 152.592,201.382 152.708 L 368.164 152.816 370.182 154.124 M61.789 185.531 C 59.751 186.206,53.318 192.284,52.998 193.836 C 52.889 194.366,52.717 195.209,52.615 195.708 C 52.514 196.207,52.064 197.010,51.615 197.491 C 50.592 198.590,50.591 199.126,51.609 200.210 C 52.321 200.967,52.455 201.845,52.723 207.484 L 53.027 213.897 54.364 215.449 C 55.100 216.302,56.894 217.671,58.351 218.490 L 61.000 219.980 67.600 219.980 C 74.407 219.980,77.247 219.610,78.268 218.589 C 78.592 218.265,79.454 218.000,80.183 218.000 C 81.215 218.000,81.875 217.624,83.167 216.300 C 85.097 214.322,85.078 214.389,85.385 208.447 C 85.573 204.812,85.780 203.671,86.410 202.786 C 87.463 201.308,87.406 199.429,86.200 195.838 C 85.650 194.199,85.197 192.531,85.193 192.129 C 85.182 190.904,81.995 188.163,80.197 187.831 C 79.319 187.670,78.150 187.124,77.600 186.618 C 76.566 185.667,63.988 184.803,61.789 185.531 M75.081 186.895 C 75.697 187.168,76.416 187.596,76.680 187.847 C 76.944 188.098,78.142 188.426,79.343 188.576 C 81.212 188.809,81.560 188.988,81.769 189.818 C 81.915 190.401,82.401 190.885,82.987 191.033 C 83.793 191.235,84.006 191.600,84.214 193.139 C 84.560 195.705,85.134 197.447,85.820 198.017 C 86.738 198.778,86.534 201.014,85.440 202.194 C 84.563 203.141,84.455 203.696,84.190 208.646 C 83.916 213.774,83.851 214.085,82.981 214.482 C 82.475 214.712,81.960 215.305,81.836 215.799 C 81.649 216.543,81.269 216.730,79.618 216.889 C 78.146 217.030,77.423 217.330,76.853 218.034 C 76.099 218.965,75.903 218.992,68.809 219.139 L 61.538 219.290 60.469 218.293 C 59.881 217.745,58.714 217.077,57.875 216.809 C 56.919 216.503,56.219 215.975,55.997 215.393 C 55.803 214.882,55.393 214.315,55.087 214.132 C 54.045 213.512,53.600 211.093,53.598 206.040 C 53.596 202.366,53.434 200.692,53.002 199.862 C 52.476 198.855,52.477 198.626,53.004 197.873 C 53.332 197.405,53.600 196.252,53.600 195.311 C 53.600 194.040,53.758 193.600,54.213 193.600 C 54.551 193.600,55.199 192.970,55.653 192.200 C 56.107 191.430,56.727 190.800,57.029 190.800 C 57.332 190.800,57.852 190.273,58.185 189.628 C 58.531 188.961,59.180 188.402,59.696 188.328 C 60.193 188.258,60.778 187.795,60.995 187.300 C 61.465 186.228,72.835 185.901,75.081 186.895 M30.500 279.996 C 29.785 280.432,29.200 280.928,29.200 281.099 C 29.200 281.270,28.810 281.588,28.333 281.805 C 27.856 282.022,27.271 282.559,27.033 282.999 C 26.795 283.438,26.119 284.373,25.532 285.077 C 24.766 285.994,24.387 287.014,24.194 288.678 C 24.045 289.955,23.536 291.810,23.062 292.800 C 22.202 294.596,22.200 294.680,22.080 330.600 C 21.958 367.306,22.024 369.258,23.439 370.433 C 23.736 370.679,24.093 371.487,24.232 372.228 C 24.480 373.554,26.113 375.600,26.923 375.600 C 27.151 375.600,28.456 376.145,29.825 376.812 L 32.313 378.024 200.190 378.016 L 368.068 378.008 369.934 377.045 C 370.960 376.516,372.477 375.796,373.304 375.446 C 374.385 374.988,374.988 374.385,375.446 373.304 C 375.796 372.477,376.521 370.951,377.057 369.912 L 378.032 368.025 377.916 332.095 C 377.811 299.717,377.736 296.066,377.150 295.172 C 376.792 294.626,376.366 292.849,376.202 291.222 C 375.668 285.902,373.390 282.243,370.300 281.741 C 369.475 281.607,368.800 281.341,368.800 281.149 C 368.800 279.067,356.328 278.072,354.400 280.000 C 353.603 280.797,353.067 280.800,200.062 280.800 C 47.032 280.800,46.522 280.797,45.800 280.000 C 44.706 278.791,32.482 278.787,30.500 279.996 M44.842 281.333 C 46.301 282.289,354.996 282.178,355.587 281.221 C 355.868 280.767,357.046 280.638,361.072 280.621 L 366.200 280.600 368.768 282.200 C 371.413 283.848,375.197 287.917,375.204 289.121 C 375.213 290.728,376.369 300.026,376.607 300.411 C 376.751 300.644,376.884 315.542,376.903 333.517 L 376.938 366.200 376.013 369.000 C 374.471 373.662,373.880 374.222,368.311 376.291 C 365.635 377.285,365.045 377.358,361.000 377.190 C 355.793 376.974,109.947 376.936,65.400 377.144 L 34.600 377.288 31.249 376.065 C 26.622 374.378,25.693 373.412,23.913 368.435 C 23.035 365.981,22.740 301.744,23.588 297.600 C 23.790 296.610,24.247 294.089,24.602 291.997 C 25.490 286.774,27.432 283.756,31.207 281.736 L 33.800 280.348 38.809 280.506 C 42.622 280.625,44.063 280.823,44.842 281.333 M62.400 313.235 C 58.557 314.339,56.041 315.922,55.164 317.788 C 54.695 318.784,54.196 319.600,54.054 319.600 C 53.487 319.600,52.852 321.957,52.651 324.800 C 52.356 328.978,51.825 331.935,51.270 332.490 C 50.634 333.126,50.698 334.432,51.413 335.376 C 51.736 335.804,52.000 336.667,52.000 337.296 C 52.000 338.346,52.366 339.259,54.129 342.600 C 55.320 344.859,58.039 347.049,60.800 347.972 C 66.070 349.734,67.513 349.824,69.963 348.546 C 70.533 348.248,71.540 348.005,72.200 348.005 C 74.784 348.005,79.623 347.038,80.330 346.379 C 80.733 346.004,81.799 345.232,82.699 344.664 C 86.485 342.274,88.060 335.028,86.451 327.400 C 86.172 326.080,85.816 323.462,85.659 321.583 C 85.203 316.137,84.120 315.119,78.000 314.384 C 76.130 314.159,73.520 313.795,72.200 313.574 C 68.461 312.950,63.939 312.793,62.400 313.235 M69.200 313.926 C 69.200 314.803,72.220 315.581,76.653 315.846 C 83.375 316.247,83.962 316.842,84.441 323.729 C 84.766 328.405,85.310 330.800,86.049 330.800 C 86.928 330.800,86.417 336.339,85.400 337.838 C 84.850 338.649,84.400 339.670,84.400 340.108 C 84.400 341.040,81.399 344.166,80.120 344.566 C 79.637 344.717,79.130 345.192,78.994 345.620 C 78.773 346.316,78.364 346.400,75.193 346.400 C 71.588 346.400,67.785 346.985,66.931 347.670 C 66.637 347.906,66.190 347.898,65.731 347.649 C 64.745 347.115,61.516 346.400,60.087 346.400 C 59.250 346.400,58.806 346.132,58.489 345.435 C 58.247 344.904,57.706 344.360,57.286 344.227 C 56.846 344.088,56.292 343.285,55.977 342.330 C 55.677 341.420,55.041 340.299,54.566 339.838 C 54.018 339.308,53.608 338.276,53.448 337.029 C 53.309 335.945,52.899 334.730,52.536 334.329 C 52.173 333.928,52.055 333.600,52.274 333.600 C 53.101 333.600,53.600 331.435,53.600 327.841 C 53.600 323.892,54.055 321.945,55.260 320.740 C 55.667 320.333,56.000 319.716,56.000 319.369 C 56.000 318.422,59.125 315.600,60.173 315.600 C 60.673 315.600,61.693 315.165,62.441 314.634 C 63.805 313.665,69.200 313.100,69.200 313.926 " stroke="none" fill="#ececec" fill-rule="evenodd"></path><path id="path4" d="M35.000 25.183 C 34.560 25.382,33.418 25.556,32.463 25.572 C 30.875 25.598,30.505 25.821,28.157 28.169 L 25.588 30.738 25.694 69.269 C 25.792 105.056,25.850 107.897,26.500 109.161 C 26.885 109.910,27.200 110.765,27.200 111.061 C 27.200 111.358,27.362 111.600,27.561 111.600 C 27.759 111.600,28.110 112.140,28.340 112.799 C 28.584 113.500,29.223 114.195,29.879 114.474 C 30.495 114.735,31.540 115.427,32.200 116.011 C 33.536 117.193,37.504 118.292,38.666 117.802 C 41.129 116.763,52.110 116.687,200.200 116.684 C 350.066 116.681,358.011 116.737,361.534 117.823 C 362.950 118.260,366.592 117.227,367.922 116.012 C 368.568 115.423,369.614 114.716,370.248 114.443 C 372.353 113.535,374.058 109.291,374.475 103.921 C 374.981 97.406,374.713 31.590,374.176 30.686 C 373.333 29.265,369.866 25.983,369.043 25.826 C 363.604 24.792,362.358 24.699,360.124 25.158 C 357.680 25.660,42.036 25.565,37.800 25.061 C 36.700 24.930,35.440 24.985,35.000 25.183 M80.200 54.530 C 84.399 55.168,87.701 57.404,88.427 60.102 C 88.678 61.036,89.142 62.300,89.457 62.910 C 89.961 63.884,89.956 64.128,89.416 64.899 C 89.077 65.383,88.796 66.413,88.790 67.189 C 88.785 67.965,88.592 69.410,88.362 70.400 C 87.888 72.442,88.480 77.686,89.436 79.914 C 90.573 82.563,89.087 87.607,86.926 88.428 C 86.405 88.626,85.883 89.041,85.764 89.349 C 85.093 91.098,58.050 91.927,54.800 90.299 C 49.399 87.592,47.479 83.041,49.339 77.352 C 50.495 73.817,50.542 72.340,49.612 68.758 C 48.437 64.228,48.689 62.754,51.353 58.580 C 52.285 57.121,54.935 55.157,56.800 54.544 C 58.727 53.911,76.057 53.900,80.200 54.530 M32.461 155.483 C 28.558 156.737,26.322 159.309,25.562 163.424 C 24.340 170.032,25.424 240.000,26.747 240.000 C 26.896 240.000,27.453 240.798,27.986 241.774 C 28.518 242.749,29.235 243.634,29.577 243.740 C 35.256 245.504,36.240 245.662,39.800 245.384 C 42.975 245.135,351.220 245.021,361.400 245.264 C 365.389 245.360,367.614 245.106,369.702 244.317 C 371.342 243.698,374.176 239.152,374.741 236.233 C 375.359 233.046,375.389 167.383,374.775 164.320 C 374.246 161.687,373.612 160.000,373.151 160.000 C 372.958 160.000,372.800 159.743,372.800 159.429 C 372.800 159.115,372.305 158.487,371.700 158.033 C 371.095 157.580,370.409 157.051,370.175 156.858 C 368.341 155.348,374.371 155.410,204.000 155.146 C 113.910 155.006,39.210 154.784,38.000 154.652 C 36.250 154.461,35.118 154.631,32.461 155.483 M75.313 183.943 C 85.363 185.153,88.838 189.951,88.246 201.800 C 87.635 214.032,87.463 215.181,85.881 217.651 C 84.289 220.134,84.678 219.981,76.800 221.231 C 75.370 221.457,73.120 221.816,71.800 222.028 C 65.119 223.098,63.660 222.934,56.800 220.336 C 52.808 218.825,51.618 216.457,50.799 208.400 C 50.609 206.530,50.242 204.190,49.984 203.200 C 48.939 199.202,49.027 197.001,50.323 194.710 C 50.979 193.549,51.635 192.034,51.780 191.342 C 52.137 189.648,56.533 185.460,59.280 184.198 C 61.632 183.117,67.660 183.021,75.313 183.943 M32.063 284.168 C 31.107 284.939,29.992 285.676,29.585 285.805 C 29.169 285.937,28.175 287.394,27.322 289.120 L 25.800 292.200 25.515 325.400 C 25.359 343.660,25.202 359.320,25.167 360.200 C 24.837 368.568,27.233 373.484,32.110 374.444 C 34.284 374.872,366.055 374.873,368.258 374.445 C 370.585 373.993,373.993 370.584,374.444 368.258 C 374.868 366.069,374.855 303.751,374.429 296.770 C 374.061 290.737,373.712 289.831,370.513 286.600 C 367.717 283.776,365.605 282.979,361.300 283.127 C 354.028 283.376,42.512 283.278,38.200 283.025 L 33.800 282.767 32.063 284.168 M82.467 312.441 C 83.365 312.669,84.645 313.534,85.767 314.672 C 86.775 315.695,87.622 316.547,87.648 316.566 C 87.739 316.630,88.413 327.406,88.648 332.561 C 89.285 346.514,85.621 349.691,67.302 351.069 C 60.650 351.570,54.592 348.698,52.157 343.890 C 51.797 343.180,51.221 342.278,50.875 341.884 C 49.018 339.767,48.412 333.646,49.600 329.000 C 50.040 327.280,50.400 325.215,50.400 324.412 C 50.400 323.610,50.664 322.604,50.987 322.176 C 51.310 321.749,51.580 320.716,51.587 319.880 C 51.613 316.772,55.320 312.643,58.448 312.238 C 59.412 312.113,60.650 311.934,61.200 311.841 C 62.945 311.546,80.937 312.053,82.467 312.441 " stroke="none" fill="#cccccc" fill-rule="evenodd"></path></g></svg>