<svg id="svg" xmlns="http://www.w3.org/2000/svg" xmlns:xlink="http://www.w3.org/1999/xlink" width="400" height="400" viewBox="0, 0, 400,400"><g id="svgg"><path id="path0" d="M0.000 200.000 L 0.000 400.000 200.000 400.000 L 400.000 400.000 400.000 200.000 L 400.000 0.000 200.000 0.000 L 0.000 0.000 0.000 200.000 M372.267 23.036 C 372.890 23.495,374.057 24.182,374.861 24.563 C 376.375 25.279,378.679 27.524,379.644 29.223 C 380.105 30.032,380.219 36.279,380.313 65.572 C 380.428 101.717,380.242 108.228,379.057 109.537 C 378.697 109.935,378.244 111.106,378.051 112.139 C 377.716 113.932,377.362 114.451,374.516 117.328 C 372.031 119.841,371.585 120.130,369.731 120.435 C 367.253 120.842,35.615 120.854,33.146 120.447 C 30.060 119.938,25.116 115.056,24.602 112.011 C 24.454 111.138,23.995 109.992,23.580 109.465 C 22.230 107.749,22.000 101.510,22.015 67.000 C 22.033 26.066,21.701 28.118,29.023 23.666 C 31.650 22.068,29.856 22.083,202.467 22.142 L 371.133 22.200 372.267 23.036 M63.200 55.867 C 62.870 55.997,62.330 56.328,62.000 56.601 C 61.670 56.875,60.410 57.317,59.200 57.584 C 55.809 58.333,55.656 58.395,55.421 59.120 C 55.301 59.494,54.672 60.101,54.024 60.468 L 52.846 61.136 52.847 72.668 C 52.848 84.070,53.107 86.800,54.190 86.800 C 54.481 86.800,55.772 87.385,57.059 88.100 L 59.400 89.400 70.200 89.392 C 82.340 89.383,82.086 89.439,85.604 85.955 L 87.063 84.510 87.022 73.955 C 86.994 66.818,86.831 63.136,86.521 62.583 C 85.765 61.240,82.089 58.000,81.317 57.997 C 78.492 57.985,73.791 57.135,73.103 56.511 C 72.304 55.787,64.657 55.289,63.200 55.867 M47.438 153.400 L 48.517 154.400 202.600 154.400 L 356.683 154.400 357.762 153.400 C 359.423 151.861,368.583 151.857,369.920 153.394 C 370.436 153.988,371.407 154.488,372.331 154.635 C 374.577 154.995,377.577 158.123,378.037 160.587 C 378.223 161.584,378.786 162.955,379.288 163.633 L 380.200 164.867 380.200 201.133 C 380.200 237.388,380.200 237.401,379.341 239.258 C 378.868 240.280,378.354 241.701,378.197 242.415 C 378.040 243.129,377.436 244.183,376.856 244.757 C 376.275 245.331,375.481 246.295,375.091 246.900 C 374.701 247.505,374.151 248.000,373.868 248.000 C 373.586 248.000,372.745 248.450,372.000 249.000 L 370.645 250.000 201.376 250.000 C 36.883 250.000,32.081 249.979,31.154 249.255 C 30.629 248.845,29.820 248.391,29.354 248.245 C 27.928 247.799,25.167 244.148,24.584 241.938 C 24.291 240.828,23.791 239.623,23.473 239.260 C 22.158 237.758,22.000 233.703,22.000 201.400 C 22.000 168.535,22.135 165.314,23.597 163.200 C 23.977 162.650,24.513 161.251,24.786 160.092 C 25.098 158.772,25.575 157.828,26.061 157.567 C 26.489 157.339,27.006 156.709,27.212 156.169 C 27.417 155.628,28.084 154.996,28.692 154.765 C 29.301 154.534,30.095 154.076,30.456 153.749 C 32.382 152.006,45.640 151.734,47.438 153.400 M62.800 186.800 C 62.103 187.779,61.661 188.000,60.401 188.000 C 58.995 188.000,57.600 188.777,57.600 189.561 C 57.600 189.728,57.162 190.099,56.626 190.386 C 55.939 190.754,55.571 191.388,55.376 192.540 C 55.196 193.605,54.680 194.565,53.888 195.304 L 52.676 196.437 52.950 205.017 C 53.237 214.002,53.342 214.800,54.233 214.800 C 54.533 214.800,55.039 215.295,55.356 215.900 C 56.515 218.114,58.513 219.595,60.852 219.976 C 62.059 220.172,63.776 220.713,64.668 221.178 C 66.358 222.059,66.721 222.014,69.148 220.622 C 69.742 220.281,72.204 219.973,75.748 219.795 L 81.400 219.512 82.951 218.169 C 84.705 216.652,85.154 215.153,85.183 210.720 C 85.196 208.716,85.358 207.951,85.827 207.689 C 87.310 206.859,87.749 199.495,86.426 197.637 C 86.000 197.039,85.374 195.350,85.034 193.882 C 84.534 191.730,84.105 190.905,82.807 189.607 L 81.200 188.000 76.075 188.000 L 70.950 188.000 69.800 186.800 C 68.763 185.718,68.406 185.600,66.152 185.600 C 63.833 185.600,63.593 185.686,62.800 186.800 M372.351 283.400 C 372.977 284.060,373.920 284.998,374.445 285.485 C 377.146 287.989,377.697 288.768,378.029 290.543 C 378.220 291.564,378.786 292.955,379.288 293.633 L 380.200 294.866 380.330 331.533 C 380.484 374.842,380.610 372.599,377.861 375.521 C 376.728 376.726,375.260 377.972,374.600 378.291 C 373.940 378.609,372.770 379.214,372.000 379.634 C 370.628 380.384,367.245 380.399,201.750 380.399 C 29.010 380.400,30.995 380.414,29.697 379.204 C 29.280 378.816,28.504 378.360,27.973 378.192 C 27.443 378.023,26.116 376.974,25.026 375.861 C 21.950 372.719,22.030 373.802,22.025 335.400 C 22.021 301.193,22.233 295.161,23.510 293.273 C 23.909 292.683,24.460 291.300,24.734 290.200 C 25.049 288.938,25.596 287.929,26.217 287.467 C 26.757 287.063,27.200 286.472,27.200 286.153 C 27.200 285.834,27.814 285.211,28.564 284.768 C 29.315 284.325,30.026 283.709,30.145 283.398 C 30.645 282.097,34.179 282.071,202.105 282.135 L 371.211 282.200 372.351 283.400 M61.640 316.807 C 60.672 317.463,59.592 318.000,59.240 318.000 C 58.534 318.001,55.987 320.486,55.245 321.900 C 54.985 322.395,54.527 322.800,54.229 322.800 C 53.345 322.800,53.248 323.561,52.958 332.712 L 52.681 341.449 53.927 342.425 C 54.750 343.070,55.282 343.929,55.496 344.963 C 55.835 346.597,56.268 346.998,58.112 347.387 C 58.723 347.516,59.611 348.066,60.084 348.611 C 60.722 349.344,61.344 349.600,62.490 349.600 C 63.606 349.600,64.315 349.878,65.036 350.600 C 65.586 351.150,66.227 351.600,66.461 351.600 C 66.694 351.600,67.239 351.150,67.671 350.600 C 68.437 349.627,68.596 349.600,73.541 349.600 L 78.624 349.600 81.212 347.207 C 82.635 345.891,83.921 344.811,84.068 344.807 C 84.215 344.803,84.635 343.900,85.000 342.800 C 85.365 341.700,85.812 340.800,85.993 340.800 C 87.656 340.800,87.503 330.849,85.827 329.911 C 85.359 329.649,85.194 328.878,85.175 326.880 C 85.161 325.406,84.936 322.850,84.675 321.200 L 84.200 318.200 78.790 317.800 C 74.047 317.449,73.261 317.289,72.415 316.500 C 70.786 314.982,64.051 315.174,61.640 316.807 " stroke="none" fill="#fbfbfb" fill-rule="evenodd"></path><path id="path1" d="M31.247 24.378 C 27.922 25.695,25.397 28.209,24.423 31.172 L 23.558 33.800 23.729 68.400 C 23.829 88.787,24.065 104.068,24.303 105.600 C 24.882 109.322,25.846 112.416,26.792 113.587 C 27.243 114.144,27.803 114.960,28.036 115.400 C 28.594 116.450,31.057 118.150,33.029 118.845 C 35.448 119.699,366.949 119.674,369.600 118.820 C 374.430 117.263,377.365 112.760,378.476 105.200 C 379.405 98.872,379.344 34.771,378.406 31.619 C 377.407 28.267,374.997 25.780,371.465 24.459 L 369.170 23.600 201.085 23.641 C 42.475 23.681,32.901 23.722,31.247 24.378 M371.257 25.264 C 373.794 26.025,377.060 29.599,377.602 32.209 C 378.438 36.236,377.922 105.226,377.032 108.343 C 375.825 112.572,372.863 116.544,370.136 117.589 C 367.544 118.582,36.833 118.694,33.478 117.702 C 31.178 117.023,28.000 114.515,28.000 113.380 C 28.000 113.144,27.671 112.598,27.269 112.166 C 25.042 109.776,25.000 108.974,25.000 68.800 C 25.000 39.792,25.110 31.541,25.508 30.600 C 26.237 28.878,29.286 26.017,31.072 25.380 C 33.156 24.637,368.782 24.523,371.257 25.264 M59.400 54.646 C 51.631 56.686,49.183 60.987,50.434 70.400 C 50.921 74.069,50.924 73.581,50.384 77.200 C 49.550 82.784,49.514 83.216,49.764 84.548 C 50.131 86.507,53.410 89.869,55.200 90.121 C 55.970 90.229,57.770 90.618,59.200 90.985 C 63.243 92.023,79.614 91.497,84.000 90.188 C 87.004 89.292,90.229 85.405,89.634 83.400 C 88.786 80.548,88.574 75.964,88.855 66.600 C 89.052 60.024,86.977 56.874,81.423 55.321 C 79.384 54.751,61.131 54.191,59.400 54.646 M73.603 55.215 C 74.371 55.444,76.410 55.798,78.134 56.002 C 83.311 56.615,86.038 58.258,87.480 61.632 C 88.377 63.730,88.330 85.773,87.427 86.771 C 84.513 89.991,79.587 90.959,67.400 90.709 C 54.802 90.451,50.089 87.980,50.931 82.074 C 52.041 74.286,52.074 71.752,51.122 67.301 C 49.979 61.959,52.772 58.113,59.484 55.788 C 62.509 54.740,70.863 54.401,73.603 55.215 M30.860 155.282 C 29.530 155.814,28.560 156.490,28.296 157.069 C 28.063 157.581,27.759 158.000,27.622 158.000 C 27.245 158.000,25.984 160.267,25.554 161.717 C 23.473 168.742,23.600 166.174,23.600 201.373 C 23.600 228.625,23.695 234.308,24.181 236.080 C 24.500 237.246,25.034 239.184,25.368 240.387 C 25.701 241.589,26.342 243.029,26.792 243.587 C 27.243 244.144,27.813 244.996,28.060 245.479 C 28.330 246.008,29.527 246.766,31.059 247.379 L 33.608 248.400 201.504 248.384 L 369.400 248.368 371.600 247.425 C 373.408 246.651,374.100 246.047,375.485 244.038 C 377.186 241.570,377.445 240.878,378.578 235.800 C 379.510 231.620,379.514 170.274,378.583 166.862 C 376.470 159.120,375.569 157.681,371.600 155.706 L 369.000 154.411 363.200 154.639 C 355.856 154.927,50.374 154.928,40.400 154.640 C 33.494 154.441,32.857 154.484,30.860 155.282 M202.600 155.734 C 287.960 155.746,359.801 155.606,362.246 155.424 C 367.055 155.065,370.467 155.704,372.175 157.283 C 372.602 157.677,373.171 158.000,373.441 158.000 C 374.212 158.000,376.209 161.566,377.032 164.411 C 377.964 167.633,378.455 229.292,377.598 235.600 C 376.846 241.139,374.984 244.257,371.242 246.243 L 368.684 247.600 201.242 247.592 L 33.800 247.584 31.233 246.090 C 29.572 245.122,28.391 244.102,27.888 243.197 C 27.460 242.429,26.983 241.710,26.828 241.600 C 24.955 240.268,23.683 175.702,25.344 166.264 C 26.315 160.750,27.750 158.386,31.268 156.507 L 33.800 155.155 40.600 155.433 C 44.340 155.586,117.240 155.721,202.600 155.734 M59.258 185.687 C 56.931 186.806,52.800 190.392,52.800 191.292 C 52.800 191.491,52.380 192.226,51.867 192.927 C 50.048 195.409,49.614 198.984,50.402 205.000 C 51.983 217.087,52.387 218.199,56.051 220.569 C 58.777 222.332,64.220 223.769,67.000 223.459 C 67.880 223.361,71.210 223.013,74.400 222.685 C 85.016 221.593,86.893 220.296,87.592 213.567 C 87.830 211.275,88.205 208.320,88.427 207.000 C 89.540 200.362,89.017 196.132,86.442 190.953 C 84.492 187.031,82.884 186.004,78.674 185.994 C 77.313 185.990,74.782 185.630,73.049 185.194 C 68.001 183.922,62.522 184.118,59.258 185.687 M70.245 185.541 C 71.069 186.309,72.821 186.630,78.867 187.119 C 83.679 187.509,84.899 188.745,87.232 195.600 C 88.177 198.377,88.293 205.608,87.430 207.892 C 87.117 208.721,86.786 210.765,86.694 212.434 C 86.341 218.898,84.397 220.464,75.581 221.380 C 72.380 221.713,69.180 222.188,68.471 222.435 C 67.062 222.926,66.098 222.843,61.645 221.848 C 58.206 221.080,55.114 219.075,54.456 217.188 C 54.226 216.529,53.768 215.886,53.438 215.759 C 52.522 215.408,52.092 213.444,51.825 208.400 C 51.692 205.870,51.372 202.945,51.116 201.900 C 50.563 199.652,51.142 196.659,52.565 194.400 C 53.050 193.630,53.677 192.430,53.958 191.733 C 54.637 190.051,57.867 187.374,59.868 186.836 C 60.751 186.598,61.799 186.043,62.198 185.602 C 63.230 184.462,69.040 184.419,70.245 185.541 M33.917 283.627 C 32.000 283.939,28.851 285.851,28.314 287.030 C 28.070 287.563,27.759 288.000,27.622 288.000 C 26.716 288.000,24.951 292.801,24.313 297.000 C 23.522 302.207,23.456 368.381,24.239 371.074 C 25.304 374.739,28.091 377.337,32.341 378.627 C 35.255 379.511,367.767 379.468,370.400 378.583 C 373.116 377.671,373.977 377.158,375.932 375.289 C 379.141 372.224,379.003 374.034,378.978 335.200 C 378.956 299.579,378.804 295.819,377.260 292.613 C 376.832 291.726,376.257 290.404,375.982 289.675 C 375.437 288.229,370.924 284.144,369.480 283.789 C 368.297 283.498,35.698 283.338,33.917 283.627 M201.400 284.516 C 288.740 284.521,361.392 284.387,362.849 284.219 C 366.301 283.821,369.301 284.652,371.422 286.595 C 372.266 287.368,373.194 288.000,373.485 288.000 C 373.775 288.000,374.299 288.675,374.648 289.500 C 374.997 290.325,375.716 291.839,376.245 292.865 C 377.881 296.036,378.042 300.292,377.916 337.000 L 377.800 371.000 376.875 372.488 C 375.716 374.352,372.601 377.124,371.233 377.509 C 368.656 378.235,31.868 377.837,30.534 377.107 C 28.457 375.971,25.641 372.803,25.304 371.225 C 24.607 367.960,24.950 296.780,25.675 294.165 C 27.620 287.150,32.335 283.751,39.400 284.271 C 41.160 284.401,114.060 284.511,201.400 284.516 M61.200 314.452 C 59.770 314.889,58.213 315.344,57.740 315.463 C 54.804 316.198,51.656 321.254,51.179 326.000 C 50.991 327.870,50.644 330.840,50.407 332.600 C 49.511 339.274,52.127 347.281,55.708 348.826 C 56.318 349.089,57.262 349.834,57.808 350.482 C 59.848 352.906,65.643 353.809,70.600 352.474 C 72.360 352.000,74.970 351.610,76.400 351.606 C 82.088 351.593,85.977 348.385,87.984 342.051 C 89.405 337.566,89.418 336.989,88.268 329.000 C 87.920 326.580,87.527 323.581,87.393 322.335 C 86.804 316.825,84.780 315.424,76.426 314.743 C 73.910 314.538,71.120 314.202,70.226 313.995 C 67.663 313.403,64.028 313.587,61.200 314.452 M72.785 315.192 C 73.236 315.433,74.818 315.726,76.302 315.842 C 82.648 316.339,85.064 317.200,85.579 319.147 C 86.483 322.559,86.781 324.325,86.790 326.313 C 86.796 327.475,87.070 329.072,87.400 329.862 C 89.733 335.446,85.929 348.400,81.955 348.400 C 81.726 348.400,81.026 348.912,80.400 349.538 C 79.296 350.643,79.107 350.683,74.046 350.908 C 69.511 351.110,68.714 351.249,67.940 351.970 C 66.836 352.998,66.085 353.005,64.800 352.000 C 64.250 351.570,63.299 351.214,62.687 351.209 C 61.268 351.198,59.165 350.323,58.432 349.439 C 58.119 349.062,57.258 348.501,56.517 348.191 C 55.661 347.833,54.965 347.151,54.604 346.314 C 54.292 345.591,53.489 344.190,52.820 343.200 C 52.012 342.005,51.603 340.905,51.602 339.926 C 51.601 339.115,51.424 337.990,51.210 337.426 C 50.966 336.784,50.959 336.035,51.191 335.423 C 51.395 334.886,51.688 331.906,51.842 328.800 C 52.116 323.270,52.145 323.131,53.261 322.078 C 53.887 321.486,54.400 320.791,54.400 320.532 C 54.400 319.017,59.171 315.763,63.000 314.667 C 64.276 314.301,71.883 314.709,72.785 315.192 " stroke="none" fill="#fcd857" fill-rule="evenodd"></path><path id="path2" d="M32.180 22.408 C 30.104 22.822,28.044 24.084,25.294 26.627 C 21.926 29.743,22.032 28.437,22.015 67.000 C 22.000 101.510,22.230 107.749,23.580 109.465 C 23.995 109.992,24.454 111.138,24.602 112.011 C 25.116 115.056,30.060 119.938,33.146 120.447 C 35.615 120.854,367.253 120.842,369.731 120.435 C 371.585 120.130,372.031 119.841,374.516 117.328 C 377.362 114.451,377.716 113.932,378.051 112.139 C 378.244 111.106,378.697 109.935,379.057 109.537 C 380.242 108.228,380.428 101.717,380.313 65.572 C 380.219 36.279,380.105 30.032,379.644 29.223 C 378.679 27.524,376.375 25.279,374.861 24.563 C 374.057 24.182,372.890 23.495,372.267 23.036 L 371.133 22.200 202.467 22.142 C 109.700 22.111,33.071 22.230,32.180 22.408 M371.465 24.459 C 374.997 25.780,377.407 28.267,378.406 31.619 C 379.344 34.771,379.405 98.872,378.476 105.200 C 377.365 112.760,374.430 117.263,369.600 118.820 C 366.949 119.674,35.448 119.699,33.029 118.845 C 31.057 118.150,28.594 116.450,28.036 115.400 C 27.803 114.960,27.243 114.144,26.792 113.587 C 25.846 112.416,24.882 109.322,24.303 105.600 C 24.065 104.068,23.829 88.787,23.729 68.400 L 23.558 33.800 24.423 31.172 C 25.397 28.209,27.922 25.695,31.247 24.378 C 32.901 23.722,42.475 23.681,201.085 23.641 L 369.170 23.600 371.465 24.459 M59.484 55.788 C 52.772 58.113,49.979 61.959,51.122 67.301 C 52.074 71.752,52.041 74.286,50.931 82.074 C 50.089 87.980,54.802 90.451,67.400 90.709 C 79.587 90.959,84.513 89.991,87.427 86.771 C 88.330 85.773,88.377 63.730,87.480 61.632 C 86.038 58.258,83.311 56.615,78.134 56.002 C 76.410 55.798,74.371 55.444,73.603 55.215 C 70.863 54.401,62.509 54.740,59.484 55.788 M73.103 56.511 C 73.791 57.135,78.492 57.985,81.317 57.997 C 82.089 58.000,85.765 61.240,86.521 62.583 C 86.831 63.136,86.994 66.818,87.022 73.955 L 87.063 84.510 85.604 85.955 C 82.086 89.439,82.340 89.383,70.200 89.392 L 59.400 89.400 57.059 88.100 C 55.772 87.385,54.481 86.800,54.190 86.800 C 53.107 86.800,52.848 84.070,52.847 72.668 L 52.846 61.136 54.024 60.468 C 54.672 60.101,55.301 59.494,55.421 59.120 C 55.656 58.395,55.809 58.333,59.200 57.584 C 60.410 57.317,61.670 56.875,62.000 56.601 C 63.059 55.724,63.721 55.627,68.059 55.714 C 71.498 55.784,72.469 55.937,73.103 56.511 M32.257 152.811 C 31.628 153.000,30.818 153.422,30.456 153.749 C 30.095 154.076,29.301 154.534,28.692 154.765 C 28.084 154.996,27.417 155.628,27.212 156.169 C 27.006 156.709,26.489 157.339,26.061 157.567 C 25.575 157.828,25.098 158.772,24.786 160.092 C 24.513 161.251,23.977 162.650,23.597 163.200 C 21.248 166.596,21.134 236.589,23.473 239.260 C 23.791 239.623,24.291 240.828,24.584 241.938 C 25.167 244.148,27.928 247.799,29.354 248.245 C 29.820 248.391,30.629 248.845,31.154 249.255 C 32.081 249.979,36.883 250.000,201.376 250.000 L 370.645 250.000 372.000 249.000 C 372.745 248.450,373.586 248.000,373.868 248.000 C 374.151 248.000,374.701 247.505,375.091 246.900 C 375.481 246.295,376.275 245.331,376.856 244.757 C 377.436 244.183,378.040 243.129,378.197 242.415 C 378.354 241.701,378.868 240.280,379.341 239.258 C 380.200 237.401,380.200 237.388,380.200 201.133 L 380.200 164.867 379.288 163.633 C 378.786 162.955,378.223 161.584,378.037 160.587 C 377.577 158.123,374.577 154.995,372.331 154.635 C 371.407 154.488,370.436 153.988,369.920 153.394 C 368.583 151.857,359.423 151.861,357.762 153.400 L 356.683 154.400 202.600 154.400 L 48.517 154.400 47.438 153.400 C 46.293 152.339,35.261 151.911,32.257 152.811 M202.600 154.860 C 287.740 154.863,360.010 154.764,363.200 154.639 L 369.000 154.411 371.600 155.706 C 375.569 157.681,376.470 159.120,378.583 166.862 C 379.514 170.274,379.510 231.620,378.578 235.800 C 377.445 240.878,377.186 241.570,375.485 244.038 C 374.100 246.047,373.408 246.651,371.600 247.425 L 369.400 248.368 201.504 248.384 L 33.608 248.400 31.059 247.379 C 29.527 246.766,28.330 246.008,28.060 245.479 C 27.813 244.996,27.243 244.144,26.792 243.587 C 26.342 243.029,25.701 241.589,25.368 240.387 C 25.034 239.184,24.500 237.246,24.181 236.080 C 23.695 234.308,23.600 228.625,23.600 201.373 C 23.600 166.174,23.473 168.742,25.554 161.717 C 25.984 160.267,27.245 158.000,27.622 158.000 C 27.759 158.000,28.063 157.581,28.296 157.069 C 29.244 154.988,32.161 154.402,40.400 154.640 C 44.470 154.758,117.460 154.857,202.600 154.860 M62.198 185.602 C 61.799 186.043,60.751 186.598,59.868 186.836 C 57.867 187.374,54.637 190.051,53.958 191.733 C 53.677 192.430,53.050 193.630,52.565 194.400 C 51.142 196.659,50.563 199.652,51.116 201.900 C 51.372 202.945,51.692 205.870,51.825 208.400 C 52.092 213.444,52.522 215.408,53.438 215.759 C 53.768 215.886,54.226 216.529,54.456 217.188 C 55.114 219.075,58.206 221.080,61.645 221.848 C 66.098 222.843,67.062 222.926,68.471 222.435 C 69.180 222.188,72.380 221.713,75.581 221.380 C 84.397 220.464,86.341 218.898,86.694 212.434 C 86.786 210.765,87.117 208.721,87.430 207.892 C 88.293 205.608,88.177 198.377,87.232 195.600 C 84.899 188.745,83.679 187.509,78.867 187.119 C 72.821 186.630,71.069 186.309,70.245 185.541 C 69.040 184.419,63.230 184.462,62.198 185.602 M69.800 186.800 L 70.950 188.000 76.075 188.000 L 81.200 188.000 82.807 189.607 C 84.105 190.905,84.534 191.730,85.034 193.882 C 85.374 195.350,86.000 197.039,86.426 197.637 C 87.749 199.495,87.310 206.859,85.827 207.689 C 85.358 207.951,85.196 208.716,85.183 210.720 C 85.154 215.153,84.705 216.652,82.951 218.169 L 81.400 219.512 75.748 219.795 C 72.204 219.973,69.742 220.281,69.148 220.622 C 66.721 222.014,66.358 222.059,64.668 221.178 C 63.776 220.713,62.059 220.172,60.852 219.976 C 58.513 219.595,56.515 218.114,55.356 215.900 C 55.039 215.295,54.533 214.800,54.233 214.800 C 53.342 214.800,53.237 214.002,52.950 205.017 L 52.676 196.437 53.888 195.304 C 54.680 194.565,55.196 193.605,55.376 192.540 C 55.571 191.388,55.939 190.754,56.626 190.386 C 57.162 190.099,57.600 189.728,57.600 189.561 C 57.600 188.777,58.995 188.000,60.401 188.000 C 61.661 188.000,62.103 187.779,62.800 186.800 C 63.593 185.686,63.833 185.600,66.152 185.600 C 68.406 185.600,68.763 185.718,69.800 186.800 M31.681 282.451 C 30.956 282.661,30.265 283.087,30.145 283.398 C 30.026 283.709,29.315 284.325,28.564 284.768 C 27.814 285.211,27.200 285.834,27.200 286.153 C 27.200 286.472,26.757 287.063,26.217 287.467 C 25.596 287.929,25.049 288.938,24.734 290.200 C 24.460 291.300,23.909 292.683,23.510 293.273 C 22.233 295.161,22.021 301.193,22.025 335.400 C 22.030 373.802,21.950 372.719,25.026 375.861 C 26.116 376.974,27.443 378.023,27.973 378.192 C 28.504 378.360,29.280 378.816,29.697 379.204 C 30.995 380.414,29.010 380.400,201.750 380.399 C 367.245 380.399,370.628 380.384,372.000 379.634 C 372.770 379.214,373.940 378.609,374.600 378.291 C 375.260 377.972,376.728 376.726,377.861 375.521 C 380.610 372.599,380.484 374.842,380.330 331.533 L 380.200 294.866 379.288 293.633 C 378.786 292.955,378.220 291.564,378.029 290.543 C 377.697 288.768,377.146 287.989,374.445 285.485 C 373.920 284.998,372.977 284.060,372.351 283.400 L 371.211 282.200 202.105 282.135 C 95.915 282.094,32.509 282.212,31.681 282.451 M369.480 283.789 C 370.924 284.144,375.437 288.229,375.982 289.675 C 376.257 290.404,376.832 291.726,377.260 292.613 C 378.804 295.819,378.956 299.579,378.978 335.200 C 379.003 374.034,379.141 372.224,375.932 375.289 C 373.977 377.158,373.116 377.671,370.400 378.583 C 367.767 379.468,35.255 379.511,32.341 378.627 C 28.091 377.337,25.304 374.739,24.239 371.074 C 23.456 368.381,23.522 302.207,24.313 297.000 C 24.951 292.801,26.716 288.000,27.622 288.000 C 27.759 288.000,28.070 287.563,28.314 287.030 C 28.851 285.851,32.000 283.939,33.917 283.627 C 35.698 283.338,368.297 283.498,369.480 283.789 M63.000 314.667 C 59.171 315.763,54.400 319.017,54.400 320.532 C 54.400 320.791,53.887 321.486,53.261 322.078 C 52.145 323.131,52.116 323.270,51.842 328.800 C 51.688 331.906,51.395 334.886,51.191 335.423 C 50.959 336.035,50.966 336.784,51.210 337.426 C 51.424 337.990,51.601 339.115,51.602 339.926 C 51.603 340.905,52.012 342.005,52.820 343.200 C 53.489 344.190,54.292 345.591,54.604 346.314 C 54.965 347.151,55.661 347.833,56.517 348.191 C 57.258 348.501,58.119 349.062,58.432 349.439 C 59.165 350.323,61.268 351.198,62.687 351.209 C 63.299 351.214,64.250 351.570,64.800 352.000 C 66.085 353.005,66.836 352.998,67.940 351.970 C 68.714 351.249,69.511 351.110,74.046 350.908 C 79.107 350.683,79.296 350.643,80.400 349.538 C 81.026 348.912,81.726 348.400,81.955 348.400 C 85.929 348.400,89.733 335.446,87.400 329.862 C 87.070 329.072,86.796 327.475,86.790 326.313 C 86.781 324.325,86.483 322.559,85.579 319.147 C 85.064 317.200,82.648 316.339,76.302 315.842 C 74.818 315.726,73.236 315.433,72.785 315.192 C 71.883 314.709,64.276 314.301,63.000 314.667 M72.415 316.500 C 73.261 317.289,74.047 317.449,78.790 317.800 L 84.200 318.200 84.675 321.200 C 84.936 322.850,85.161 325.406,85.175 326.880 C 85.194 328.878,85.359 329.649,85.827 329.911 C 87.503 330.849,87.656 340.800,85.993 340.800 C 85.812 340.800,85.365 341.700,85.000 342.800 C 84.635 343.900,84.215 344.803,84.068 344.807 C 83.921 344.811,82.635 345.891,81.212 347.207 L 78.624 349.600 73.541 349.600 C 68.596 349.600,68.437 349.627,67.671 350.600 C 67.239 351.150,66.694 351.600,66.461 351.600 C 66.227 351.600,65.586 351.150,65.036 350.600 C 64.315 349.878,63.606 349.600,62.490 349.600 C 61.344 349.600,60.722 349.344,60.084 348.611 C 59.611 348.066,58.723 347.516,58.112 347.387 C 56.268 346.998,55.835 346.597,55.496 344.963 C 55.282 343.929,54.750 343.070,53.927 342.425 L 52.681 341.449 52.958 332.712 C 53.248 323.561,53.345 322.800,54.229 322.800 C 54.527 322.800,54.985 322.395,55.245 321.900 C 55.987 320.486,58.534 318.001,59.240 318.000 C 59.592 318.000,60.672 317.463,61.640 316.807 C 64.051 315.174,70.786 314.982,72.415 316.500 " stroke="none" fill="#fce48f" fill-rule="evenodd"></path><path id="path3" d="M32.262 25.890 C 31.527 26.000,30.184 27.001,28.462 28.723 L 25.800 31.386 25.800 68.993 L 25.800 106.600 26.853 108.400 C 27.432 109.390,28.018 110.688,28.156 111.285 C 28.558 113.019,32.153 116.339,34.122 116.793 C 36.595 117.364,366.487 117.334,368.600 116.763 C 370.722 116.189,373.799 113.173,374.667 110.816 C 375.035 109.817,375.620 108.666,375.968 108.258 C 376.533 107.595,376.611 103.461,376.708 69.371 L 376.816 31.225 374.191 28.665 C 371.950 26.478,371.299 26.067,369.728 25.852 C 367.714 25.576,34.109 25.614,32.262 25.890 M74.510 53.500 C 75.119 54.051,76.261 54.243,79.881 54.400 C 84.241 54.590,84.522 54.654,85.339 55.649 C 85.813 56.225,86.603 56.906,87.095 57.160 C 87.588 57.415,88.106 58.113,88.248 58.712 C 88.389 59.310,88.816 60.160,89.197 60.600 C 90.897 62.565,91.205 65.895,90.144 70.835 C 89.536 73.665,89.536 74.100,90.144 76.793 C 90.505 78.391,90.800 81.210,90.800 83.058 L 90.800 86.417 88.673 88.544 C 86.776 90.441,86.315 90.699,84.403 90.925 C 83.225 91.065,82.157 91.335,82.030 91.525 C 80.775 93.413,60.614 93.893,58.686 92.082 C 57.981 91.418,57.003 91.085,55.166 90.882 C 53.015 90.643,52.548 90.449,52.137 89.625 C 51.870 89.088,51.183 88.404,50.611 88.104 C 49.986 87.777,49.479 87.093,49.338 86.389 C 49.209 85.745,48.855 85.012,48.552 84.760 C 47.787 84.125,47.851 81.227,48.650 80.345 C 49.213 79.723,49.293 78.405,49.248 70.443 C 49.190 59.925,49.223 59.775,52.179 56.954 C 54.179 55.045,54.516 54.879,57.223 54.478 C 58.819 54.241,60.405 53.766,60.748 53.424 C 61.726 52.446,73.417 52.511,74.510 53.500 M32.463 157.200 C 31.772 157.860,30.967 158.400,30.673 158.400 C 29.789 158.400,28.499 160.095,28.025 161.882 C 27.780 162.807,27.302 163.841,26.963 164.180 C 25.708 165.435,25.569 169.689,25.684 203.200 L 25.800 236.600 26.857 238.600 C 27.439 239.700,28.227 241.266,28.610 242.081 C 29.101 243.126,29.819 243.803,31.053 244.383 C 32.014 244.834,32.800 245.454,32.800 245.759 C 32.800 246.793,33.948 246.800,201.433 246.800 L 368.800 246.800 369.679 245.900 C 370.162 245.405,371.105 244.729,371.774 244.398 C 372.443 244.068,373.568 242.914,374.274 241.835 C 374.980 240.756,375.793 239.728,376.079 239.551 C 376.500 239.291,376.620 232.203,376.706 202.802 L 376.812 166.375 375.567 163.688 C 374.882 162.209,374.138 160.612,373.913 160.137 C 373.689 159.663,372.851 158.969,372.052 158.595 C 371.254 158.220,369.745 157.484,368.700 156.957 C 366.401 155.799,361.109 155.580,359.776 156.587 C 358.599 157.478,46.601 157.478,45.424 156.587 C 44.829 156.137,43.368 156.000,39.183 156.000 L 33.719 156.000 32.463 157.200 M71.947 183.491 C 72.271 184.070,73.176 184.219,77.530 184.411 C 82.974 184.652,83.000 184.660,85.534 186.979 C 87.292 188.588,87.900 189.822,88.222 192.437 C 88.379 193.709,88.897 195.207,89.480 196.073 C 91.260 198.717,91.019 205.346,88.982 209.800 C 88.674 210.473,88.363 212.832,88.274 215.170 C 88.098 219.793,88.296 219.440,84.556 221.772 C 82.778 222.880,82.330 222.964,76.238 223.335 C 71.619 223.616,69.710 223.879,69.480 224.264 C 69.010 225.051,63.863 224.999,63.200 224.200 C 62.926 223.869,62.050 223.599,61.251 223.598 C 59.202 223.595,56.842 222.871,55.848 221.940 C 55.381 221.504,54.432 220.876,53.737 220.546 C 53.001 220.195,52.259 219.413,51.960 218.672 C 51.677 217.972,51.274 217.283,51.066 217.141 C 48.557 215.431,48.645 193.367,51.166 192.018 C 51.646 191.761,52.000 191.175,52.000 190.638 C 52.000 189.387,56.546 184.800,57.785 184.800 C 58.278 184.800,59.293 184.365,60.041 183.834 C 61.852 182.547,71.267 182.276,71.947 183.491 M33.000 286.072 C 31.049 287.164,28.449 290.183,28.031 291.843 C 27.796 292.776,27.305 293.838,26.939 294.204 C 25.764 295.378,25.570 302.037,25.687 337.115 L 25.800 371.009 27.385 372.904 C 28.256 373.947,29.201 374.800,29.485 374.800 C 29.768 374.800,30.000 374.967,30.000 375.171 C 30.000 376.892,20.299 376.800,201.268 376.800 L 371.279 376.800 372.400 375.700 C 373.016 375.095,373.764 374.373,374.060 374.095 C 374.357 373.818,375.098 373.064,375.706 372.420 L 376.812 371.250 376.706 333.325 L 376.600 295.400 375.500 293.962 C 374.895 293.171,374.400 292.235,374.400 291.881 C 374.400 290.560,373.468 289.273,371.859 288.372 C 370.946 287.860,369.872 287.028,369.471 286.521 L 368.742 285.600 201.271 285.612 C 78.482 285.621,33.587 285.744,33.000 286.072 M72.000 312.627 C 72.990 312.770,74.129 313.178,74.532 313.534 C 75.083 314.022,76.465 314.239,80.132 314.417 C 87.457 314.771,87.954 315.239,88.247 322.070 C 88.355 324.586,88.681 327.134,88.982 327.800 C 91.164 332.645,91.290 339.910,89.227 341.973 C 88.800 342.400,88.389 343.629,88.219 344.985 C 87.973 346.956,87.770 347.368,86.765 347.938 C 86.123 348.302,85.502 348.898,85.384 349.261 C 85.267 349.625,84.592 350.214,83.885 350.570 C 83.178 350.927,82.125 351.594,81.544 352.055 C 80.647 352.765,79.687 352.936,75.193 353.186 C 70.895 353.425,69.829 353.605,69.529 354.140 C 69.022 355.048,64.174 355.081,63.182 354.184 C 62.808 353.845,61.547 353.417,60.380 353.232 C 58.711 352.969,58.039 352.630,57.229 351.645 C 56.663 350.956,55.958 350.394,55.662 350.396 C 54.209 350.406,52.755 348.968,52.165 346.937 C 51.834 345.799,51.289 344.640,50.955 344.363 C 49.515 343.167,49.199 341.734,49.230 336.520 C 49.289 326.658,49.723 322.146,50.717 321.089 C 51.203 320.572,51.600 319.919,51.600 319.639 C 51.600 319.358,52.385 318.366,53.343 317.434 C 54.302 316.502,55.158 315.526,55.245 315.265 C 55.332 315.004,56.409 314.626,57.638 314.426 C 58.896 314.222,60.555 313.598,61.436 312.998 C 63.066 311.889,66.144 311.781,72.000 312.627 " stroke="none" fill="#fccc04" fill-rule="evenodd"></path><path id="path4" d="M31.072 25.380 C 29.286 26.017,26.237 28.878,25.508 30.600 C 25.110 31.541,25.000 39.792,25.000 68.800 C 25.000 108.974,25.042 109.776,27.269 112.166 C 27.671 112.598,28.000 113.144,28.000 113.380 C 28.000 114.515,31.178 117.023,33.478 117.702 C 36.833 118.694,367.544 118.582,370.136 117.589 C 372.863 116.544,375.825 112.572,377.032 108.343 C 377.922 105.226,378.438 36.236,377.602 32.209 C 377.060 29.599,373.794 26.025,371.257 25.264 C 368.782 24.523,33.156 24.637,31.072 25.380 M369.728 25.852 C 371.299 26.067,371.950 26.478,374.191 28.665 L 376.816 31.225 376.708 69.371 C 376.611 103.461,376.533 107.595,375.968 108.258 C 375.620 108.666,375.035 109.817,374.667 110.816 C 373.799 113.173,370.722 116.189,368.600 116.763 C 366.487 117.334,36.595 117.364,34.122 116.793 C 32.153 116.339,28.558 113.019,28.156 111.285 C 28.018 110.688,27.432 109.390,26.853 108.400 L 25.800 106.600 25.800 68.993 L 25.800 31.386 28.462 28.723 C 30.184 27.001,31.527 26.000,32.262 25.890 C 34.109 25.614,367.714 25.576,369.728 25.852 M60.748 53.424 C 60.405 53.766,58.819 54.241,57.223 54.478 C 54.516 54.879,54.179 55.045,52.179 56.954 C 49.223 59.775,49.190 59.925,49.248 70.443 C 49.293 78.405,49.213 79.723,48.650 80.345 C 47.851 81.227,47.787 84.125,48.552 84.760 C 48.855 85.012,49.209 85.745,49.338 86.389 C 49.479 87.093,49.986 87.777,50.611 88.104 C 51.183 88.404,51.870 89.088,52.137 89.625 C 52.548 90.449,53.015 90.643,55.166 90.882 C 57.003 91.085,57.981 91.418,58.686 92.082 C 60.614 93.893,80.775 93.413,82.030 91.525 C 82.157 91.335,83.225 91.065,84.403 90.925 C 86.315 90.699,86.776 90.441,88.673 88.544 L 90.800 86.417 90.800 83.058 C 90.800 81.210,90.505 78.391,90.144 76.793 C 89.536 74.100,89.536 73.665,90.144 70.835 C 91.205 65.895,90.897 62.565,89.197 60.600 C 88.816 60.160,88.389 59.310,88.248 58.712 C 88.106 58.113,87.588 57.415,87.095 57.160 C 86.603 56.906,85.813 56.225,85.339 55.649 C 84.522 54.654,84.241 54.590,79.881 54.400 C 76.261 54.243,75.119 54.051,74.510 53.500 C 73.417 52.511,61.726 52.446,60.748 53.424 M81.423 55.321 C 86.977 56.874,89.052 60.024,88.855 66.600 C 88.574 75.964,88.786 80.548,89.634 83.400 C 90.229 85.405,87.004 89.292,84.000 90.188 C 79.614 91.497,63.243 92.023,59.200 90.985 C 57.770 90.618,55.970 90.229,55.200 90.121 C 53.410 89.869,50.131 86.507,49.764 84.548 C 49.514 83.216,49.550 82.784,50.384 77.200 C 50.924 73.581,50.921 74.069,50.434 70.400 C 49.183 60.987,51.631 56.686,59.400 54.646 C 61.131 54.191,79.384 54.751,81.423 55.321 M31.268 156.507 C 28.814 157.818,27.721 159.045,26.374 162.000 C 23.775 167.706,24.185 239.720,26.828 241.600 C 26.983 241.710,27.460 242.429,27.888 243.197 C 28.391 244.102,29.572 245.122,31.233 246.090 L 33.800 247.584 201.242 247.592 L 368.684 247.600 371.242 246.243 C 374.984 244.257,376.846 241.139,377.598 235.600 C 378.455 229.292,377.964 167.633,377.032 164.411 C 376.209 161.566,374.212 158.000,373.441 158.000 C 373.171 158.000,372.602 157.677,372.175 157.283 C 370.467 155.704,367.055 155.065,362.246 155.424 C 356.907 155.823,50.334 155.831,40.600 155.433 L 33.800 155.155 31.268 156.507 M45.424 156.587 C 46.601 157.478,358.599 157.478,359.776 156.587 C 361.109 155.580,366.401 155.799,368.700 156.957 C 369.745 157.484,371.254 158.220,372.052 158.595 C 372.851 158.969,373.689 159.663,373.913 160.137 C 374.138 160.612,374.882 162.209,375.567 163.688 L 376.812 166.375 376.706 202.802 C 376.620 232.203,376.500 239.291,376.079 239.551 C 375.793 239.728,374.980 240.756,374.274 241.835 C 373.568 242.914,372.443 244.068,371.774 244.398 C 371.105 244.729,370.162 245.405,369.679 245.900 L 368.800 246.800 201.433 246.800 C 33.948 246.800,32.800 246.793,32.800 245.759 C 32.800 245.454,32.014 244.834,31.053 244.383 C 29.819 243.803,29.101 243.126,28.610 242.081 C 28.227 241.266,27.439 239.700,26.857 238.600 L 25.800 236.600 25.684 203.200 C 25.569 169.689,25.708 165.435,26.963 164.180 C 27.302 163.841,27.780 162.807,28.025 161.882 C 28.499 160.095,29.789 158.400,30.673 158.400 C 30.967 158.400,31.772 157.860,32.463 157.200 L 33.719 156.000 39.183 156.000 C 43.368 156.000,44.829 156.137,45.424 156.587 M60.041 183.834 C 59.293 184.365,58.278 184.800,57.785 184.800 C 56.546 184.800,52.000 189.387,52.000 190.638 C 52.000 191.175,51.646 191.761,51.166 192.018 C 48.645 193.367,48.557 215.431,51.066 217.141 C 51.274 217.283,51.677 217.972,51.960 218.672 C 52.259 219.413,53.001 220.195,53.737 220.546 C 54.432 220.876,55.381 221.504,55.848 221.940 C 56.842 222.871,59.202 223.595,61.251 223.598 C 62.050 223.599,62.926 223.869,63.200 224.200 C 63.863 224.999,69.010 225.051,69.480 224.264 C 69.710 223.879,71.619 223.616,76.238 223.335 C 82.330 222.964,82.778 222.880,84.556 221.772 C 88.296 219.440,88.098 219.793,88.274 215.170 C 88.363 212.832,88.674 210.473,88.982 209.800 C 91.019 205.346,91.260 198.717,89.480 196.073 C 88.897 195.207,88.379 193.709,88.222 192.437 C 87.900 189.822,87.292 188.588,85.534 186.979 C 83.000 184.660,82.974 184.652,77.530 184.411 C 73.176 184.219,72.271 184.070,71.947 183.491 C 71.267 182.276,61.852 182.547,60.041 183.834 M73.049 185.194 C 74.782 185.630,77.313 185.990,78.674 185.994 C 82.884 186.004,84.492 187.031,86.442 190.953 C 89.017 196.132,89.540 200.362,88.427 207.000 C 88.205 208.320,87.830 211.275,87.592 213.567 C 86.893 220.296,85.016 221.593,74.400 222.685 C 71.210 223.013,67.880 223.361,67.000 223.459 C 64.220 223.769,58.777 222.332,56.051 220.569 C 52.387 218.199,51.983 217.087,50.402 205.000 C 49.614 198.984,50.048 195.409,51.867 192.927 C 52.380 192.226,52.800 191.491,52.800 191.292 C 52.800 190.392,56.931 186.806,59.258 185.687 C 62.522 184.118,68.001 183.922,73.049 185.194 M33.750 284.817 C 29.856 286.060,27.008 289.357,25.675 294.165 C 24.950 296.780,24.607 367.960,25.304 371.225 C 25.641 372.803,28.457 375.971,30.534 377.107 C 31.868 377.837,368.656 378.235,371.233 377.509 C 372.601 377.124,375.716 374.352,376.875 372.488 L 377.800 371.000 377.916 337.000 C 378.042 300.292,377.881 296.036,376.245 292.865 C 375.716 291.839,374.997 290.325,374.648 289.500 C 374.299 288.675,373.775 288.000,373.485 288.000 C 373.194 288.000,372.266 287.368,371.422 286.595 C 369.301 284.652,366.301 283.821,362.849 284.219 C 359.779 284.573,44.195 284.624,39.400 284.271 C 36.851 284.083,35.702 284.195,33.750 284.817 M369.471 286.521 C 369.872 287.028,370.946 287.860,371.859 288.372 C 373.468 289.273,374.400 290.560,374.400 291.881 C 374.400 292.235,374.895 293.171,375.500 293.962 L 376.600 295.400 376.706 333.325 L 376.812 371.250 375.706 372.420 C 375.098 373.064,374.357 373.818,374.060 374.095 C 373.764 374.373,373.016 375.095,372.400 375.700 L 371.279 376.800 201.268 376.800 C 20.299 376.800,30.000 376.892,30.000 375.171 C 30.000 374.967,29.768 374.800,29.485 374.800 C 29.201 374.800,28.256 373.947,27.385 372.904 L 25.800 371.009 25.687 337.115 C 25.570 302.037,25.764 295.378,26.939 294.204 C 27.305 293.838,27.796 292.776,28.031 291.843 C 28.449 290.183,31.049 287.164,33.000 286.072 C 33.587 285.744,78.482 285.621,201.271 285.612 L 368.742 285.600 369.471 286.521 M61.436 312.998 C 60.555 313.598,58.896 314.222,57.638 314.426 C 56.409 314.626,55.332 315.004,55.245 315.265 C 55.158 315.526,54.302 316.502,53.343 317.434 C 52.385 318.366,51.600 319.358,51.600 319.639 C 51.600 319.919,51.203 320.572,50.717 321.089 C 49.723 322.146,49.289 326.658,49.230 336.520 C 49.199 341.734,49.515 343.167,50.955 344.363 C 51.289 344.640,51.834 345.799,52.165 346.937 C 52.755 348.968,54.209 350.406,55.662 350.396 C 55.958 350.394,56.663 350.956,57.229 351.645 C 58.039 352.630,58.711 352.969,60.380 353.232 C 61.547 353.417,62.808 353.845,63.182 354.184 C 64.174 355.081,69.022 355.048,69.529 354.140 C 69.829 353.605,70.895 353.425,75.193 353.186 C 79.687 352.936,80.647 352.765,81.544 352.055 C 82.125 351.594,83.178 350.927,83.885 350.570 C 84.592 350.214,85.267 349.625,85.384 349.261 C 85.502 348.898,86.123 348.302,86.765 347.938 C 87.770 347.368,87.973 346.956,88.219 344.985 C 88.389 343.629,88.800 342.400,89.227 341.973 C 91.290 339.910,91.164 332.645,88.982 327.800 C 88.681 327.134,88.355 324.586,88.247 322.070 C 87.954 315.239,87.457 314.771,80.132 314.417 C 76.465 314.239,75.083 314.022,74.532 313.534 C 72.735 311.944,63.538 311.568,61.436 312.998 M70.226 313.995 C 71.120 314.202,73.910 314.538,76.426 314.743 C 84.780 315.424,86.804 316.825,87.393 322.335 C 87.527 323.581,87.920 326.580,88.268 329.000 C 89.418 336.989,89.405 337.566,87.984 342.051 C 85.977 348.385,82.088 351.593,76.400 351.606 C 74.970 351.610,72.360 352.000,70.600 352.474 C 65.643 353.809,59.848 352.906,57.808 350.482 C 57.262 349.834,56.318 349.089,55.708 348.826 C 52.127 347.281,49.511 339.274,50.407 332.600 C 50.644 330.840,50.991 327.870,51.179 326.000 C 51.656 321.254,54.804 316.198,57.740 315.463 C 58.213 315.344,59.770 314.889,61.200 314.452 C 64.028 313.587,67.663 313.403,70.226 313.995 " stroke="none" fill="#fcd424" fill-rule="evenodd"></path></g></svg>